<svg width="101" height="21" viewBox="0 0 101 21" fill="none" xmlns="http://www.w3.org/2000/svg">
<path d="M7.68 20.28C6.28 20.28 5.03867 20 3.956 19.44C2.87333 18.8613 2.03333 18.0493 1.436 17.004C0.857333 15.9587 0.568 14.7547 0.568 13.392V7.008C0.568 5.664 0.866667 4.47867 1.464 3.452C2.06133 2.40667 2.892 1.604 3.956 1.044C5.03867 0.465333 6.28 0.176 7.68 0.176C9.09867 0.176 10.34 0.465333 11.404 1.044C12.4867 1.604 13.3267 2.40667 13.924 3.452C14.5213 4.47867 14.82 5.664 14.82 7.008V13.392C14.82 14.7547 14.5213 15.9587 13.924 17.004C13.3267 18.0493 12.4867 18.8613 11.404 19.44C10.34 20 9.09867 20.28 7.68 20.28ZM7.68 17.48C8.856 17.48 9.79867 17.116 10.508 16.388C11.2173 15.66 11.572 14.6987 11.572 13.504V6.98C11.572 5.76667 11.2173 4.796 10.508 4.068C9.79867 3.34 8.856 2.976 7.68 2.976C6.52267 2.976 5.58933 3.34 4.88 4.068C4.17067 4.796 3.816 5.76667 3.816 6.98V13.504C3.816 14.6987 4.17067 15.66 4.88 16.388C5.58933 17.116 6.52267 17.48 7.68 17.48ZM24.9866 5.468C26.4986 5.468 27.7026 5.916 28.5986 6.812C29.5133 7.708 29.9706 8.93067 29.9706 10.48V19.664C29.9706 19.7573 29.9333 19.8413 29.8586 19.916C29.8026 19.972 29.728 20 29.6346 20H27.0586C26.9653 20 26.8813 19.972 26.8066 19.916C26.7506 19.8413 26.7226 19.7573 26.7226 19.664V11.152C26.7226 10.2933 26.48 9.60267 25.9946 9.08C25.5093 8.53867 24.8653 8.268 24.0626 8.268C23.26 8.268 22.6066 8.52933 22.1026 9.052C21.6173 9.57467 21.3746 10.2653 21.3746 11.124V19.664C21.3746 19.7573 21.3373 19.8413 21.2626 19.916C21.2066 19.972 21.132 20 21.0386 20H18.4626C18.3693 20 18.2853 19.972 18.2106 19.916C18.1546 19.8413 18.1266 19.7573 18.1266 19.664V6.028C18.1266 5.93467 18.1546 5.86 18.2106 5.804C18.2853 5.72933 18.3693 5.692 18.4626 5.692H21.0386C21.132 5.692 21.2066 5.72933 21.2626 5.804C21.3373 5.86 21.3746 5.93467 21.3746 6.028V6.924C21.3746 6.98 21.3933 7.01733 21.4306 7.036C21.468 7.05467 21.496 7.036 21.5146 6.98C22.28 5.972 23.4373 5.468 24.9866 5.468ZM45.3157 11.236C45.3904 11.7027 45.4277 12.2253 45.4277 12.804L45.3997 13.672C45.3997 13.896 45.2877 14.008 45.0637 14.008H36.2997C36.2064 14.008 36.1597 14.0547 36.1597 14.148C36.2157 14.764 36.2997 15.184 36.4117 15.408C36.8597 16.752 37.9517 17.4333 39.6877 17.452C40.9571 17.452 41.9651 16.9293 42.7117 15.884C42.7864 15.772 42.8797 15.716 42.9917 15.716C43.0664 15.716 43.1317 15.744 43.1877 15.8L44.9237 17.228C45.0917 17.3587 45.1197 17.508 45.0077 17.676C44.4291 18.4973 43.6544 19.132 42.6837 19.58C41.7317 20.028 40.6677 20.252 39.4917 20.252C38.0357 20.252 36.7944 19.9253 35.7677 19.272C34.7597 18.6187 34.0224 17.704 33.5557 16.528C33.1264 15.52 32.9117 14.12 32.9117 12.328C32.9117 11.2453 33.0237 10.368 33.2477 9.696C33.6211 8.38933 34.3211 7.36267 35.3477 6.616C36.3931 5.85067 37.6437 5.468 39.0997 5.468C42.7771 5.468 44.8491 7.39067 45.3157 11.236ZM39.0997 8.268C38.4091 8.268 37.8304 8.44533 37.3637 8.8C36.9157 9.136 36.5984 9.612 36.4117 10.228C36.2997 10.5453 36.2251 10.956 36.1877 11.46C36.1504 11.5533 36.1877 11.6 36.2997 11.6H41.9837C42.0771 11.6 42.1237 11.5533 42.1237 11.46C42.0864 10.9933 42.0304 10.6387 41.9557 10.396C41.7877 9.724 41.4517 9.20133 40.9477 8.828C40.4624 8.45467 39.8464 8.268 39.0997 8.268ZM47.8922 12.972C47.7988 12.972 47.7148 12.944 47.6402 12.888C47.5842 12.8133 47.5562 12.7293 47.5562 12.636V10.508C47.5562 10.4147 47.5842 10.34 47.6402 10.284C47.7148 10.2093 47.7988 10.172 47.8922 10.172H56.7122C56.8055 10.172 56.8802 10.2093 56.9362 10.284C57.0108 10.34 57.0482 10.4147 57.0482 10.508V12.636C57.0482 12.7293 57.0108 12.8133 56.9362 12.888C56.8802 12.944 56.8055 12.972 56.7122 12.972H47.8922ZM71.9748 0.399999C72.0681 0.399999 72.1428 0.437332 72.1988 0.511999C72.2734 0.567999 72.3108 0.642666 72.3108 0.735999V2.892C72.3108 2.98533 72.2734 3.06933 72.1988 3.144C72.1428 3.2 72.0681 3.228 71.9748 3.228H66.8228C66.7294 3.228 66.6828 3.27467 66.6828 3.368V19.664C66.6828 19.7573 66.6454 19.8413 66.5708 19.916C66.5148 19.972 66.4401 20 66.3468 20H63.7708C63.6774 20 63.5934 19.972 63.5188 19.916C63.4628 19.8413 63.4348 19.7573 63.4348 19.664V3.368C63.4348 3.27467 63.3881 3.228 63.2948 3.228H58.3388C58.2454 3.228 58.1614 3.2 58.0868 3.144C58.0308 3.06933 58.0028 2.98533 58.0028 2.892V0.735999C58.0028 0.642666 58.0308 0.567999 58.0868 0.511999C58.1614 0.437332 58.2454 0.399999 58.3388 0.399999H71.9748ZM84.8548 11.236C84.9294 11.7027 84.9668 12.2253 84.9668 12.804L84.9388 13.672C84.9388 13.896 84.8268 14.008 84.6028 14.008H75.8388C75.7454 14.008 75.6988 14.0547 75.6988 14.148C75.7548 14.764 75.8388 15.184 75.9508 15.408C76.3988 16.752 77.4908 17.4333 79.2268 17.452C80.4961 17.452 81.5041 16.9293 82.2508 15.884C82.3254 15.772 82.4188 15.716 82.5308 15.716C82.6054 15.716 82.6708 15.744 82.7268 15.8L84.4628 17.228C84.6308 17.3587 84.6588 17.508 84.5468 17.676C83.9681 18.4973 83.1934 19.132 82.2228 19.58C81.2708 20.028 80.2068 20.252 79.0308 20.252C77.5748 20.252 76.3334 19.9253 75.3068 19.272C74.2988 18.6187 73.5614 17.704 73.0948 16.528C72.6654 15.52 72.4508 14.12 72.4508 12.328C72.4508 11.2453 72.5628 10.368 72.7868 9.696C73.1601 8.38933 73.8601 7.36267 74.8868 6.616C75.9321 5.85067 77.1828 5.468 78.6388 5.468C82.3161 5.468 84.3881 7.39067 84.8548 11.236ZM78.6388 8.268C77.9481 8.268 77.3694 8.44533 76.9028 8.8C76.4548 9.136 76.1374 9.612 75.9508 10.228C75.8388 10.5453 75.7641 10.956 75.7268 11.46C75.6894 11.5533 75.7268 11.6 75.8388 11.6H81.5228C81.6161 11.6 81.6628 11.5533 81.6628 11.46C81.6254 10.9933 81.5694 10.6387 81.4948 10.396C81.3268 9.724 80.9908 9.20133 80.4868 8.828C80.0014 8.45467 79.3854 8.268 78.6388 8.268ZM96.8112 0.735999C96.8112 0.642666 96.8392 0.567999 96.8952 0.511999C96.9699 0.437332 97.0539 0.399999 97.1472 0.399999H99.7232C99.8166 0.399999 99.8912 0.437332 99.9472 0.511999C100.022 0.567999 100.059 0.642666 100.059 0.735999V19.664C100.059 19.7573 100.022 19.8413 99.9472 19.916C99.8912 19.972 99.8166 20 99.7232 20H97.1472C97.0539 20 96.9699 19.972 96.8952 19.916C96.8392 19.8413 96.8112 19.7573 96.8112 19.664V18.824C96.8112 18.768 96.7926 18.7307 96.7552 18.712C96.7179 18.6933 96.6806 18.712 96.6432 18.768C95.8219 19.7387 94.7486 20.224 93.4232 20.224C92.0979 20.224 90.9779 19.8787 90.0632 19.188C89.1486 18.4973 88.4859 17.536 88.0752 16.304C87.7392 15.2587 87.5712 14.092 87.5712 12.804C87.5712 11.4787 87.7299 10.34 88.0472 9.388C88.4579 8.156 89.1206 7.19467 90.0352 6.504C90.9499 5.81333 92.0979 5.468 93.4792 5.468C94.7672 5.468 95.8219 5.93467 96.6432 6.868C96.6806 6.90533 96.7179 6.924 96.7552 6.924C96.7926 6.90533 96.8112 6.868 96.8112 6.812V0.735999ZM96.1392 16.08C96.5686 15.3147 96.7832 14.232 96.7832 12.832C96.7832 11.376 96.5499 10.2653 96.0832 9.5C95.5792 8.67867 94.8699 8.268 93.9552 8.268C93.0032 8.268 92.2566 8.66 91.7152 9.444C91.1552 10.2653 90.8752 11.404 90.8752 12.86C90.8752 14.1667 91.0992 15.24 91.5472 16.08C92.0699 16.976 92.8632 17.424 93.9272 17.424C94.8792 17.424 95.6166 16.976 96.1392 16.08Z" fill="white"/>
</svg>
